<svg width="325" height="325" viewBox="0 0 325 325" fill="none" xmlns="http://www.w3.org/2000/svg">
<rect width="325" height="325" rx="162.5" fill="#3AB449"/>
<path d="M211.305 183.467L140.318 112.481C137.576 109.738 139.973 104.976 143.832 105.365C175.733 108.575 198.739 102.326 231.338 84.2541C235.043 82.1998 239.354 86.6259 237.232 90.2931C218.656 122.391 213.512 145.801 218.373 179.807C218.932 183.718 214.098 186.261 211.305 183.467Z" fill="#241F20"/>
<path d="M113.695 141.533L184.682 212.519C187.424 215.262 185.027 220.024 181.168 219.635C149.267 216.425 126.261 222.674 93.6625 240.746C89.9567 242.8 85.6462 238.374 87.7685 234.707C106.344 202.609 111.488 179.199 106.627 145.193C106.068 141.282 110.902 138.739 113.695 141.533Z" fill="#241F20"/>
</svg>
